<svg id="Capa_1" enable-background="new 0 0 512 512" height="512" viewBox="0 0 512 512" width="512" xmlns="http://www.w3.org/2000/svg"><g><path d="m84.136 314.269c-46.467 0-84.136-37.668-84.136-84.135v-83.823c0-46.467 37.669-84.135 84.135-84.135 46.467 0 84.135 37.669 84.135 84.135v83.823c.001 46.467-37.668 84.135-84.134 84.135z" fill="#d87b7b"/><path d="m105.475 311.534c-6.812 1.783-13.961 2.73-21.335 2.73-46.47 0-84.14-37.66-84.14-84.13v-83.821c0-46.47 37.67-84.14 84.14-84.14 7.374 0 14.524.948 21.335 2.73-36.131 9.448-62.795 42.314-62.795 81.409v83.821c0 39.096 26.664 71.962 62.795 81.401z" fill="#d06161"/><path d="m206.057 449.824c-10.364 0-18.764-8.401-18.764-18.764v-196.98c0-14.939-12.154-27.093-27.093-27.093h-31.865c-10.364 0-18.764-8.401-18.764-18.764s8.401-18.764 18.764-18.764h31.865c35.632 0 64.621 28.989 64.621 64.622v196.98c0 10.362-8.401 18.763-18.764 18.763z" fill="#ffddce"/><path d="m215.42 447.32c-2.75 1.593-5.953 2.506-9.364 2.506-10.368 0-18.764-8.405-18.764-18.764v-196.982c0-14.937-12.15-27.087-27.096-27.087h18.737c14.937 0 27.087 12.15 27.087 27.087v196.983c0 6.948 3.782 13.019 9.4 16.257z" fill="#ffcbbe"/><path d="m365.507 314.269c-46.467 0-84.136-37.669-84.136-84.135v-83.823c0-46.467 37.669-84.135 84.135-84.135 46.467 0 84.135 37.669 84.135 84.135v83.823c.002 46.467-37.667 84.135-84.134 84.135z" fill="#d87b7b"/><path d="m386.846 311.534c-6.811 1.783-13.961 2.73-21.335 2.73-46.47 0-84.14-37.66-84.14-84.13v-83.821c0-46.47 37.67-84.14 84.14-84.14 7.374 0 14.524.948 21.335 2.73-36.131 9.448-62.795 42.314-62.795 81.409v83.821c0 39.096 26.665 71.962 62.795 81.401z" fill="#d06161"/><path d="m243.586 449.824c10.364 0 18.764-8.401 18.764-18.764v-196.98c0-14.939 12.154-27.093 27.092-27.093h31.865c10.363 0 18.764-8.401 18.764-18.764s-8.401-18.764-18.764-18.764h-31.865c-35.632 0-64.621 28.989-64.621 64.622v196.98c0 10.362 8.401 18.763 18.765 18.763z" fill="#ffddce"/><path d="m244.083 234.08v196.983c0 6.839 3.664 12.829 9.138 16.113-2.823 1.683-6.116 2.651-9.635 2.651-10.359 0-18.764-8.405-18.764-18.764v-196.983c0-35.628 28.996-64.624 64.624-64.624h19.252c-35.628 0-64.615 28.996-64.615 64.624z" fill="#ffcbbe"/><g><path d="m401.069 184.368h-14.441c-7.726 0-13.99 6.263-13.99 13.99 0 7.726 6.263 13.99 13.99 13.99h14.441c7.726 0 13.99-6.263 13.99-13.99 0-7.727-6.263-13.99-13.99-13.99z" fill="#655e66"/><path d="m391.981 208.246c2.434 2.443 5.79 3.99 9.49 4.089-.136.009-.271.009-.407.009h-14.439c-3.863 0-7.355-1.565-9.889-4.098-2.533-2.533-4.098-6.026-4.098-9.889 0-7.726 6.261-13.996 13.987-13.996h14.439c.136 0 .271 0 .407.009-7.545.208-13.589 6.396-13.589 13.987.001 3.864 1.566 7.356 4.099 9.889z" fill="#545058"/></g><g><path d="m51.547 192.468h-14.441c-7.726 0-13.99 6.263-13.99 13.99 0 7.726 6.263 13.99 13.99 13.99h14.441c7.726 0 13.99-6.263 13.99-13.99 0-7.727-6.264-13.99-13.99-13.99z" fill="#655e66"/><path d="m42.459 216.346c2.434 2.443 5.79 3.99 9.49 4.089-.136.009-.271.009-.407.009h-14.439c-3.863 0-7.355-1.565-9.889-4.098-2.533-2.533-4.098-6.026-4.098-9.889 0-7.726 6.261-13.996 13.987-13.996h14.439c.136 0 .271 0 .407.009-7.545.208-13.589 6.396-13.589 13.987 0 3.863 1.566 7.356 4.099 9.889z" fill="#545058"/></g><g><path d="m83.596 245.115h-14.441c-7.726 0-13.99 6.263-13.99 13.99 0 7.726 6.263 13.99 13.99 13.99h14.441c7.726 0 13.99-6.263 13.99-13.99-.001-7.726-6.264-13.99-13.99-13.99z" fill="#655e66"/><path d="m74.508 268.993c2.434 2.443 5.79 3.99 9.49 4.089-.136.009-.271.009-.407.009h-14.439c-3.863 0-7.355-1.565-9.889-4.098-2.533-2.533-4.098-6.026-4.098-9.889 0-7.726 6.261-13.996 13.987-13.996h14.439c.136 0 .271 0 .407.009-7.545.208-13.589 6.396-13.589 13.987 0 3.864 1.565 7.356 4.099 9.889z" fill="#545058"/></g><circle cx="418.678" cy="346.238" fill="#dbf299" r="85.71"/><path d="m418.678 439.56c-51.458 0-93.322-41.864-93.322-93.322s41.864-93.322 93.322-93.322 93.322 41.864 93.322 93.322-41.864 93.322-93.322 93.322zm0-171.421c-43.064 0-78.099 35.035-78.099 78.099s35.035 78.099 78.099 78.099 78.099-35.035 78.099-78.099-35.035-78.099-78.099-78.099z" fill="#a8d4a4"/><g><path d="m443.024 346.237c6.572-3.881 10.994-11.017 10.994-19.202 0-12.32-9.988-22.308-22.308-22.308h-9.222c-12.32 0-22.308 9.988-22.308 22.308 0 6.332 2.651 12.036 6.888 16.096h-10.059c-12.32 0-22.308 9.988-22.308 22.308s9.988 22.308 22.308 22.308h34.701c12.32 0 22.308-9.988 22.308-22.308.001-8.185-4.421-15.321-10.994-19.202z" fill="#655e66"/><path d="m420.567 327.04c0 6.323 2.646 12.038 6.882 16.088h-10.062c-12.311 0-22.299 9.988-22.299 22.311 0 12.324 9.988 22.312 22.299 22.312h-20.374c-12.323 0-22.311-9.988-22.311-22.312 0-12.323 9.988-22.311 22.311-22.311h10.063c-4.249-4.05-6.895-9.764-6.895-16.088 0-12.324 9.988-22.311 22.311-22.311h9.218c1.926 0 3.789.248 5.578.708-9.616 2.472-16.721 11.205-16.721 21.603z" fill="#545058"/></g></g></svg>