<svg height="512" viewBox="0 0 50 60" width="512" xmlns="http://www.w3.org/2000/svg"><g id="Page-1" fill="none" fill-rule="evenodd"><g id="025---Kidney-Stones" fill-rule="nonzero"><g id="Icons_copy" transform="translate(1 1)"><path id="Shape" d="m48 29c0 18-7 29-23 29-6.22 0-10.2-1.6-12.49-4.07-1.6930296-1.9034654-2.59140676-4.3838455-2.51-6.93.0027206-2.3530911.8068805-4.6350711 2.28-6.47.9951261-1.2432169.8365499-3.0492229-.36-4.1-1.47-1.26-2.92-3.5-2.92-7.43s1.45-6.17 2.92-7.43c1.1965499-1.0507771 1.3551261-2.8567831.36-4.1-.9845396-1.2417314-1.6812846-2.6864527-2.04-4.23-.1598185-.7359446-.24027823-1.4869022-.24-2.24 0-6 4-11 15-11 16 0 23 11 23 29z" fill="#ef314c"/><path id="Shape" d="m25 0c-.485 0-.941.022-1.4.041 14.866.719 21.4 11.572 21.4 28.959 0 17.366-6.518 28.212-21.344 28.956.443.018.875.044 1.344.044 16 0 23-11 23-29s-7-29-23-29z" fill="#bb193b"/><path id="Shape" d="m12.28 40.53c-1.4731195 1.8349289-2.2772794 4.1169089-2.28 6.47-.08140676 2.5461545.8169704 5.0265346 2.51 6.93-.74 2.46-1.97 4.07-4.51 4.07-8 0-8-20-8-33 0-8.58 6.09-11.06 10.24-11.76.3587154 1.5435473 1.0554604 2.9882686 2.04 4.23.9951261 1.2432169.8365499 3.0492229-.36 4.1-1.47 1.26-2.92 3.5-2.92 7.43s1.45 6.17 2.92 7.43c1.1965499 1.0507771 1.3551261 2.8567831.36 4.1z" fill="#bb193b"/><path id="Shape" d="m36 36.17c0 4.12-3 .83-7 .83s-7 3.29-7-.83c0-3.08 3-6.17 7-6.17s7 3.09 7 6.17z" fill="#f5f5f5"/><path id="Shape" d="m29 30c-.5037792.0002892-1.0062711.0508734-1.5.151 3.226.652 5.5 3.338 5.5 6.019.037042.5390944-.0616313 1.078875-.287 1.57 2 .65 3.287 1.121 3.287-1.57 0-3.08-3-6.17-7-6.17z" fill="#cfd8dc"/><path id="Shape" d="m28 49c-.0058151.4799811-.1007597.9547039-.28 1.4-.6840646 2.0559195-2.5563729 3.4839513-4.72 3.6-3 0-5-4-5-6s3-4 5-4c1.47 0 3.48 1.62 4.44 3.28.3335613.5146427.5266244 1.1076224.56 1.72z" fill="#ffdc00"/><g fill="#fec108"><path id="Shape" d="m27.44 47.28c-.96-1.66-2.97-3.28-4.44-3.28-.5722394.0162228-1.1364828.1386338-1.664.361 1.2853211.6648767 2.3590916 1.6759529 3.1 2.919.3349739.5142447.5294252 1.1072524.564 1.72-.0058151.4799811-.1007597.9547039-.28 1.4-.5333281 1.4831422-1.6607283 2.6768601-3.111 3.294.4373455.197611.9111002.3018302 1.391.306 2.1636271-.1160487 4.0359354-1.5440805 4.72-3.6.1792403-.4452961.2741849-.9200189.28-1.4-.0333756-.6123776-.2264387-1.2053573-.56-1.72z"/><path id="Shape" d="m33.71 52.81c-2.3086142.589426-4.7328851-.3859484-5.99-2.41.1792403-.4452961.2741849-.9200189.28-1.4-.0333756-.6123776-.2264387-1.2053573-.56-1.72.7083599-1.9212096 2.1769238-3.4657337 4.06-4.27 1.9-.63 4.74 1.58 5.38 3.48s-1.27 5.69-3.17 6.32z"/></g></g><g id="Icons"><path id="Shape" d="m26 0c-14.441 0-16 8.392-16 12 .0021048.4843169.0355077.9679916.1 1.448-4.161.931-10.1 3.792-10.1 12.552 0 14.349 0 34 9 34 2.1851496.0371364 4.1597923-1.2975462 4.94-3.339 2.369 1.921 6.125 3.339 12.06 3.339 15.7 0 24-10.374 24-30s-8.3-30-24-30zm-17 58c-7 0-7-20.032-7-32 0-7.085 4.452-9.7 8.534-10.6.4254971 1.3390482 1.0883848 2.5906425 1.957 3.695.6667667.8173315.5701506 2.0151071-.219 2.715-1.493 1.275-3.272 3.734-3.272 8.19s1.779 6.915 3.271 8.193c.7899555.6993622.8870482 1.8975749.22 2.715-3.28137836 4.1518741-3.32257871 10.0023234-.1 14.2-.71 2.037-1.714 2.892-3.391 2.892zm17 0c-9.028 0-14-3.551-14-10-.0026237-2.1314942.7263086-4.199332 2.065-5.858 1.3293959-1.6591696 1.1122684-4.0718441-.492-5.467-1.707-1.463-2.573-3.708-2.573-6.675s.866-5.212 2.573-6.675c1.6042684-1.3951559 1.8213959-3.8078304.492-5.467-1.3386914-1.658668-2.0676237-3.7265058-2.065-5.858 0-6.449 4.972-10 14-10 14.6 0 22 9.42 22 28s-7.4 28-22 28z" fill="#000"/><path id="Shape" d="m26 4c-.5522847 0-1 .44771525-1 1s.4477153 1 1 1c2.909 0 9.72 0 14.024 6.549.1964961.298674.5374066.4698308.894314.4489973.3569073-.0208336.6755887-.2304924.836-.55.1604113-.3195077.1381821-.7003233-.058314-.9989973-4.896-7.449-12.465-7.449-15.696-7.449z" fill="#fff"/><g fill="#000"><path id="Shape" d="m25.94 28.34c.1430419-.3956682.0231277-.838551-.3-1.108l-6-5c-.4253155-.3374678-1.0422058-.2739137-1.389784.14318-.3475781.4170938-.2988477 1.0353317.109784 1.39282l3.878 3.232h-5.238c-.5522847 0-1 .4477153-1 1s.4477153 1 1 1h8c.4210301-.0001791.7968498-.2640526.94-.66z"/><path id="Shape" d="m41.768 22.36c-.3535422-.4240023-.9837941-.4812979-1.408-.128l-6 5c-.3232317.269549-.4430953.7126325-.2998396 1.1083763.1432557.3957439.5189651.6594344.9398396.6596237h8c.5522847 0 1-.4477153 1-1s-.4477153-1-1-1h-5.238l3.878-3.232c.4240023-.3535422.4812979-.9837941.128-1.408z"/><path id="Shape" d="m22 37.171c-.1161955 1.0021117.2426436 2.0009422.97 2.7.953.693 2.134.308 3.5-.137 1.1303101-.4302711 2.3218602-.6780325 3.53-.734 1.2068546.0546814 2.3973591.3007483 3.527.729.7261999.2836116 1.4905801.4575182 2.268.516.4419639.011593.8756196-.1214884 1.235-.379.7258698-.6979403 1.0845791-1.6945604.97-2.695 0-3.463-3.215-7.171-8-7.171s-8 3.708-8 7.171zm8-5.171c3.536 0 6 2.726 6 5.171.0189501.3592558-.0236638.719107-.126 1.064-.5941749-.0464942-1.1776635-.1841031-1.73-.408-1.3278925-.4966512-2.7271902-.7759029-4.144-.827-1.4168098.0510971-2.8161075.3303488-4.144.827-.5452144.2122984-1.1139541.3583443-1.694.435 0 0-.162-.206-.162-1.091 0-2.445 2.464-5.171 6-5.171z"/><path id="Shape" d="m32.184 43.061c-1.6153497.6674362-2.9831696 1.8206824-3.914 3.3-1.0609423-1.3137703-2.5932191-2.1610081-4.27-2.361-2.369 0-6 2.24-6 5 0 2.4 2.336 7 6 7 1.9960184-.0432247 3.8368626-1.0861193 4.9-2.776 1.2415122 1.1313367 2.8573786 1.7638645 4.537 1.776.5387436.0054342 1.0747711-.0769796 1.587-.244 2.448-.811 4.617-5.134 3.8-7.588-.751-2.239-4.024-4.968-6.64-4.107zm-8.184 10.939c-2.271 0-4-3.333-4-5 0-1.362 2.457-3 4-3 1.076 0 2.739 1.384 3.539 2.7.0191259.0384304.0408426.075516.065.111.2290433.3571299.3651703.7658545.396 1.189 0 1.41-1.519 4-4 4zm12.35-3.322c-.3871875.9295027-1.0786242 1.6999204-1.961 2.185-1.7104436.3937022-3.4937077-.2430105-4.568-1.631.1126624-.4012044.1728306-.815323.179-1.232-.0213271-.6189534-.1776392-1.2257718-.458-1.778.6618304-1.4464164 1.8237662-2.6051561 3.272-3.263 1.29-.429 3.625 1.387 4.117 2.846.1360235.9957891-.0687367 2.0083125-.581 2.873z"/></g></g></g></g></svg>